PathFileType	4	(X/Y/Z)	Run_500 02
DataRate	CameraRate	NumFrames	NumMarkers	Units	OrigDataRate	OrigDataStartFrame	OrigNumFrames
100	100	4	42	mm	100	164	128
Frame#	Time	RASI			RPSI			RTH1			RTH2			RTH3			LTH1			LTH2			LTH3			RTB1			RTB2			RTB3			LTB1			LTB2			LTB3			RCAL			RTOE			RMT5			LCAL			LTOE			LMT5			LACR			RACR			CLAV			C7			RUA1			RUA2			RUA3			RLEL			LUA1			LUA2			LUA3			LLEL			LMEL			RFAsuperior			RFAradius			RFAulna			LFAsuperior			LFAradius			LPSI			RMEL			LFAulna			LASI		
		X1	Y1	Z1	X2	Y2	Z2	X3	Y3	Z3	X4	Y4	Z4	X5	Y5	Z5	X6	Y6	Z6	X7	Y7	Z7	X8	Y8	Z8	X9	Y9	Z9	X10	Y10	Z10	X11	Y11	Z11	X12	Y12	Z12	X13	Y13	Z13	X14	Y14	Z14	X15	Y15	Z15	X16	Y16	Z16	X17	Y17	Z17	X18	Y18	Z18	X19	Y19	Z19	X20	Y20	Z20	X21	Y21	Z21	X22	Y22	Z22	X23	Y23	Z23	X24	Y24	Z24	X25	Y25	Z25	X26	Y26	Z26	X27	Y27	Z27	X28	Y28	Z28	X29	Y29	Z29	X30	Y30	Z30	X31	Y31	Z31	X32	Y32	Z32	X33	Y33	Z33	X34	Y34	Z34	X35	Y35	Z35	X36	Y36	Z36	X37	Y37	Z37	X38	Y38	Z38	X39	Y39	Z39	X40	Y40	Z40	X41	Y41	Z41	X42	Y42	Z42	

164	  1.640000	1010.384705	1039.138211	-237.646249	854.687963	1090.250537	-317.811875	962.210385	934.540043	-180.340194	1007.338153	794.891853	-199.116471	1148.357430	712.408333	-195.129633	950.834781	886.598386	-529.230072	835.643359	756.133271	-487.161284	852.113272	615.465247	-470.717337	1148.824790	511.459795	-262.887733	1061.651346	552.678977	-197.552799	974.829292	430.930511	-271.918412	808.787880	391.212024	-389.425375	678.364519	347.807652	-437.611679	660.253654	231.631584	-370.426068	796.391366	453.063838	-272.710384	931.847636	251.354765	-286.877867	882.414788	275.617755	-193.892573	475.963974	189.216803	-341.802215	674.862925	 62.976043	-326.854654	609.923372	 44.795432	-418.737069	996.923262	1516.977155	-533.589041	970.702901	1511.785585	-209.299157	1044.823080	1474.957363	-330.524130	928.480630	1540.852961	-380.011360	834.054296	1455.276819	-174.236982	848.254296	1400.516488	-119.112139	749.129391	1366.166936	-94.860504	690.801466	1331.839688	-70.030481	914.746471	1406.457013	-593.477275	954.475657	1330.182550	-607.350195	892.505906	1255.038315	-631.248224	885.411152	1188.459876	-648.778096	868.361141	1168.475369	-560.502276	745.366755	1240.108434	-37.089789	874.469974	1116.542748	-78.801414	823.763021	1098.400528	-35.927391	963.438867	1160.829890	-636.017209	1115.810324	1217.398204	-537.902390	867.776538	1088.819175	-432.254761	698.239258	1287.124512	-148.665308	1132.503476	1155.742052	-570.021153	1034.145108	1018.509569	-460.552732	
165	  1.650000	1012.433123	1047.760953	-235.594569	858.419458	1096.725898	-320.825707	964.154417	944.344753	-178.054277	1013.903655	804.700622	-199.488137	1155.367388	725.392940	-196.174512	953.774220	890.108392	-528.770802	827.731886	768.779978	-488.460561	833.663523	627.941055	-473.018163	1171.168389	517.342371	-262.725247	1079.537376	549.387604	-199.450980	1007.739472	416.889495	-271.865865	777.657963	404.490256	-395.102967	646.190731	364.239376	-442.221795	628.445764	246.155292	-376.951066	828.092432	418.287232	-274.202205	985.904477	233.413637	-285.728857	933.550462	252.493464	-193.213973	446.436948	211.651391	-348.770822	628.420245	 63.003805	-328.676803	563.423563	 49.633149	-420.662064	999.040090	1524.931887	-531.650035	967.125558	1518.599932	-209.170506	1043.446889	1481.939480	-328.177052	927.956652	1546.657517	-379.708336	829.578879	1465.891584	-177.463184	841.851187	1409.909483	-121.725459	741.898814	1377.398391	-99.650633	681.952545	1344.072841	-76.703884	918.717773	1414.230657	-593.457549	959.934633	1338.525202	-606.507438	898.857045	1263.095374	-631.388937	892.682118	1195.653327	-647.980493	874.806902	1175.923803	-559.548172	735.825881	1252.794262	-43.280143	867.183386	1131.494221	-81.933013	815.014694	1111.262132	-42.014646	971.757598	1173.226573	-633.349838	1118.208568	1242.141393	-534.342518	875.062437	1093.612113	-435.056739	690.412107	1299.778833	-155.670904	1139.044819	1180.358852	-563.608729	1041.400655	1023.336049	-463.447462	
166	  1.660000	1014.502483	1055.015194	-233.747300	862.450615	1103.402206	-322.960643	965.626769	953.407034	-175.715116	1019.456015	813.534333	-199.557483	1160.213346	735.916854	-197.670859	955.379997	893.932596	-529.105148	821.167591	782.396104	-488.671391	817.249924	641.444199	-474.722653	1191.585943	522.251682	-262.987118	1096.592604	544.150000	-201.018706	1041.971194	403.094982	-272.645329	750.768841	419.422860	-400.344738	618.728392	381.493204	-447.084679	601.185408	261.797787	-383.768824	862.974750	383.526282	-276.183312	1040.754582	217.571560	-285.641115	985.777851	231.233032	-193.422451	422.520709	235.955739	-357.278481	583.679418	 65.266918	-331.427672	520.134503	 57.825241	-424.629849	1001.047256	1532.302738	-529.900495	963.916203	1524.796994	-209.252608	1042.320087	1488.107783	-325.966596	927.704904	1551.709431	-379.668734	825.800995	1475.666460	-181.096167	835.959002	1418.988932	-124.381089	735.286254	1388.008287	-104.428472	673.973793	1355.337911	-83.508186	922.509305	1421.608216	-593.447260	964.890336	1346.482765	-606.119288	904.578816	1270.794544	-632.353920	899.395036	1202.548561	-647.894657	880.000927	1182.984791	-558.965519	727.293188	1264.614642	-49.575338	861.164977	1145.900758	-85.230796	807.951508	1123.526479	-48.039857	978.966906	1185.139813	-631.303750	1118.600981	1265.624027	-531.232265	881.825967	1098.699571	-437.004468	683.645128	1311.676418	-162.790289	1143.383502	1203.697350	-557.371465	1048.134022	1028.457247	-465.488231	
167	  1.670000	1016.304455	1060.511588	-232.530279	866.391848	1109.785878	-324.184002	967.260563	961.250409	-173.625241	1022.636039	820.591061	-200.015032	1162.349236	743.606162	-200.249395	955.788291	898.340551	-529.698347	815.995849	795.744050	-487.923565	803.394892	654.696167	-475.314449	1209.902266	526.086720	-264.154217	1113.136184	536.863257	-202.231997	1076.305423	389.911394	-274.564269	728.323642	434.567274	-403.724507	596.430521	398.470838	-451.881980	577.992875	277.708470	-389.947854	900.457526	349.360748	-278.661042	1095.865559	204.188305	-287.245139	1038.818479	212.123074	-194.880220	404.635311	261.886416	-367.221803	540.185039	 70.794941	-334.531248	479.473103	 69.754516	-429.554826	1003.037676	1538.851298	-528.357375	961.264387	1530.152446	-209.454718	1041.507904	1493.206514	-324.017669	927.727815	1555.896941	-379.857657	822.830661	1484.341773	-184.948503	830.784159	1427.419806	-127.081555	729.320652	1397.803539	-109.209345	666.924164	1365.423904	-90.301862	926.194696	1428.226435	-593.532828	969.379047	1353.655395	-606.117967	909.514163	1277.770789	-633.942624	905.628905	1208.908015	-648.809164	884.241933	1189.282080	-559.285037	719.831028	1275.323696	-55.828266	856.348238	1159.454751	-88.599645	802.461992	1134.893062	-53.917997	985.205833	1196.342741	-629.922364	1117.353056	1287.148838	-528.758902	887.579540	1103.568158	-438.174089	677.980191	1322.467031	-169.879989	1145.949230	1225.206056	-551.573410	1053.857795	1033.358545	-466.750695	
